<svg id="Filled" height="512" viewBox="0 0 512 512" width="512" xmlns="http://www.w3.org/2000/svg"><circle cx="448" cy="264" fill="#67c5e0" r="24"/><circle cx="192" cy="176" fill="#3dc285" r="152"/><circle cx="88" cy="208" fill="#f0c6a4" r="32"/><circle cx="296" cy="208" fill="#f0c6a4" r="32"/><path d="m296 168s-72-8-104-56c-32 48-104 56-104 56v24a104 104 0 0 0 104 104 104 104 0 0 0 104-104z" fill="#f7cca9"/><path d="m294.77 208a104.01 104.01 0 0 1 -205.54 0z" fill="#e9eef2"/><path d="m371.361 323.389h32a0 0 0 0 1 0 0v144a16 16 0 0 1 -16 16 16 16 0 0 1 -16-16v-144a0 0 0 0 1 0 0z" fill="#67c5e0" transform="matrix(.917 .399 -.399 .917 193.067 -121.035)"/><path d="m72 296h240a32 32 0 0 1 32 32v160a0 0 0 0 1 0 0h-304a0 0 0 0 1 0 0v-160a32 32 0 0 1 32-32z" fill="#2e9163"/><circle cx="192" cy="112" fill="#2e9163" r="24"/><path d="m144 296 48.495 64 47.505-64z" fill="#f7cca9"/><path d="m80 408h64v32h-64z" fill="#3dc285"/><path d="m344 424h32a16 16 0 0 1 16 16v32a16 16 0 0 1 -16 16h-32a0 0 0 0 1 0 0v-64a0 0 0 0 1 0 0z" fill="#f7cca9"/><path d="m375.985 376.8a34.2 34.2 0 0 0 -63.985-15.369 34.2 34.2 0 0 0 -63.985 15.342 33.452 33.452 0 0 0 7.953 22.709l20.388 82.956a8.57 8.57 0 0 0 15.128 1.785l24.783-64.407 23.733 64.406a8.566 8.566 0 0 0 15.342-2.45l12.658-81.772c3.156-5.293 8.179-16.571 7.985-23.2z" fill="#e9eef2"/><circle cx="232" cy="184" r="8"/><circle cx="152" cy="184" r="8"/><path d="m460.759 234.662a32.008 32.008 0 0 0 -32.465 54.574l-13.166 30.264-7.336-3.191a8 8 0 0 0 -10.527 4.145l-17.265 39.689a42.521 42.521 0 0 0 -28-22.91v-9.233a40.045 40.045 0 0 0 -40-40h-5.721a158.879 158.879 0 0 0 45.721-112c0-88.224-71.775-160-160-160s-160 71.776-160 160a158.873 158.873 0 0 0 45.721 112h-5.721a40.045 40.045 0 0 0 -40 40v160a8 8 0 0 0 8 8h336a24.028 24.028 0 0 0 24-24v-32a24.029 24.029 0 0 0 -.431-4.51l41.711-95.89a8 8 0 0 0 -4.144-10.528l-7.336-3.191 13.17-30.276a32.008 32.008 0 0 0 34.368-18.838 32.038 32.038 0 0 0 -16.579-42.105zm-92.771 142.366c.116 3.956-3.592 13.395-6.86 18.876a8.011 8.011 0 0 0 -1.034 2.872l-12.543 81.056a.525.525 0 0 1 -.338.157.829.829 0 0 1 -.24.007l-23.2-62.946a8 8 0 0 0 -7.45-5.234h-.056a8 8 0 0 0 -7.467 5.127l-24.258 63.046a.751.751 0 0 1 -.241.005.527.527 0 0 1 -.344-.145l-20.221-82.276a8 8 0 0 0 -1.663-3.261 25.563 25.563 0 0 1 -6.062-17.3 26.2 26.2 0 0 1 49.01-11.67 8 8 0 0 0 13.958 0 26.2 26.2 0 0 1 49.009 11.688zm-38.066 102.972h-28.24l14.423-37.487zm-80.291-192a112.84 112.84 0 0 0 39.334-40h7.035a39.812 39.812 0 0 0 25.816-9.481 143.86 143.86 0 0 1 -39.316 49.481zm-153.631-96v-17.117c15.308-2.685 52.069-11.252 80.83-34.715a31.943 31.943 0 0 0 30.34 0c28.761 23.463 65.522 32.03 80.83 34.715v17.117c0 2.694-.117 5.361-.336 8h-87.664v-16a8 8 0 0 0 -16 0v16h-87.664c-.219-2.639-.336-5.306-.336-8zm96-64a16 16 0 1 1 16-16 16.019 16.019 0 0 1 -16 16zm112 64v-6.624a23.993 23.993 0 0 1 -7.384 46.608 111.424 111.424 0 0 0 7.384-39.984zm-19.037 24a96.015 96.015 0 0 1 -185.926 0zm-60.863 88-31.67 42.667-32.33-42.667zm-32.1-272c79.4 0 144 64.6 144 144a146.108 146.108 0 0 1 -1.527 21.082 40.128 40.128 0 0 0 -30.473-28.277v-.805a8 8 0 0 0 -7.116-7.951c-.474-.053-45.149-5.29-77.887-30.9a32 32 0 1 0 -53.995 0c-32.654 25.526-77.417 30.85-77.886 30.9a8 8 0 0 0 -7.116 7.951v.805a40.128 40.128 0 0 0 -30.473 28.277 146.108 146.108 0 0 1 -1.527-21.082c0-79.4 64.6-144 144-144zm-104.616 199.984a23.993 23.993 0 0 1 -7.384-46.608v6.624a111.424 111.424 0 0 0 7.384 39.984zm-25.2 6.535a39.812 39.812 0 0 0 25.816 9.481h7.035a112.84 112.84 0 0 0 39.334 40h-32.869a143.857 143.857 0 0 1 -39.316-49.481zm-14.184 89.481a24.028 24.028 0 0 1 24-24h68.025l46.094 60.832a8 8 0 0 0 6.381 3.168h.04a8 8 0 0 0 6.384-3.232l45.101-60.768h41.2.079s.036 0 .054 0h26.642a24.028 24.028 0 0 1 24 24v8.408a41.79 41.79 0 0 0 -24 11.869 42.067 42.067 0 0 0 -32.421-12.2c-21.548 1.268-38.926 19.04-39.561 40.461a41.517 41.517 0 0 0 8.6 26.58l18.901 76.882h-219.519zm336 144a8.009 8.009 0 0 1 -8 8h-12.284l7.428-48h4.856a8.009 8.009 0 0 1 8 8zm4.943-52.195a23.846 23.846 0 0 0 -12.943-3.805h-2.38l.258-1.672 34.867-80.154 14.672 6.383zm73.723-149.417a16.017 16.017 0 1 1 -8.29-21.054 16.019 16.019 0 0 1 8.29 21.054z"/><circle cx="232" cy="184" r="8"/><circle cx="152" cy="184" r="8"/><path d="m88 384h32a8 8 0 0 0 0-16h-32a8 8 0 0 0 0 16z"/><path d="m152 400h-64a8 8 0 0 0 -8 8v32a8 8 0 0 0 8 8h64a8 8 0 0 0 8-8v-32a8 8 0 0 0 -8-8zm-8 32h-48v-16h48z"/></svg>