<svg id="Filled" height="512" viewBox="0 0 512 512" width="512" xmlns="http://www.w3.org/2000/svg"><path d="m88 296h288a32 32 0 0 1 32 32v160a0 0 0 0 1 0 0h-352a0 0 0 0 1 0 0v-160a32 32 0 0 1 32-32z" fill="#e9eef2"/><path d="m264 296-32 192-32-192z" fill="#1261a0"/><path d="m216 488-48-56 40-32h-40l32-104 32 192z" fill="#c3c6c7"/><path d="m248 488 48-56-40-32h40l-32-104-32 192z" fill="#c3c6c7"/><path d="m136 424h-5.333a8 8 0 0 1 -2.667-15.545v-22.455c0-5.514-3.589-10-8-10s-8 4.486-8 10v22.455a8 8 0 0 1 -2.667 15.545h-5.333a8 8 0 0 1 -8-8v-30c0-14.337 10.767-26 24-26s24 11.663 24 26v30a8 8 0 0 1 -8 8z" fill="#6a7073"/><path d="m208 344h48l8-48h-64z" fill="#f7cca9"/><circle cx="344" cy="400" fill="#6a7073" r="16"/><path d="m392 280h48v144h-48z" fill="#a3d4f7"/><path d="m400 424h32v32h-32z" fill="#8fbad9"/><path d="m376 456h80v32h-80z" fill="#e1e3e6"/><circle cx="336" cy="200" fill="#f0c6a4" r="32"/><circle cx="128" cy="200" fill="#f0c6a4" r="32"/><path d="m306.057 48.889a59.881 59.881 0 0 0 -20.671 3.687 106.665 106.665 0 0 0 -72.586-28.576c-60.089 0-108.8 50.144-108.8 112s48.711 112 108.8 112a107.055 107.055 0 0 0 78.942-34.931 59.606 59.606 0 0 0 14.315 1.746c38.629 0 69.943-37.144 69.943-82.963s-31.314-82.963-69.943-82.963z" fill="#5e3725"/><path d="m240 128s40 49 96 49v15a104 104 0 0 1 -104 104 104 104 0 0 1 -104-104v-16c51.952 0 87.409-22.491 110.918-48z" fill="#f7cca9"/><path d="m124.059 288h-36.059a40.045 40.045 0 0 0 -40 40v160a8 8 0 0 0 8 8h400a8 8 0 0 0 8-8v-32a8 8 0 0 0 -8-8h-16v-16a8 8 0 0 0 8-8v-144a8 8 0 0 0 -8-8h-16v-40a8 8 0 0 0 -16 0v40h-16a8 8 0 0 0 -8 8v8.812a40.1 40.1 0 0 0 -8-.812h-36.059a71.674 71.674 0 0 0 -23.725-22.25 112.354 112.354 0 0 0 16.963-25.75h2.821a39.975 39.975 0 0 0 35.418-58.558c.313-.562.63-1.12.933-1.69a102.419 102.419 0 0 0 11.649-47.9c0-50.158-34.965-90.963-77.942-90.963a67.627 67.627 0 0 0 -18.8 2.662 114.692 114.692 0 0 0 -74.458-27.551c-64.4 0-116.8 53.832-116.8 120a123.074 123.074 0 0 0 4.968 34.535 39.987 39.987 0 0 0 27.032 69.465h2.821a112.354 112.354 0 0 0 16.963 25.75 71.674 71.674 0 0 0 -23.725 22.25zm50.31 0h-29.615a56 56 0 0 1 15-10.489 112.644 112.644 0 0 0 14.615 10.489zm33.52 104h-29.057l18.848-61.256zm14.667 88h-2.877l-40.219-46.923 31.125-24.9zm-5.112-128h29.112l-14.556 87.338zm35.971 56.177 31.125 24.9-40.219 46.923h-2.877zm12.905-77.433 18.848 61.256h-29.057zm-11.764-26.744-5.333 32h-34.446l-5.333-32zm-190.556 24a24.028 24.028 0 0 1 24-24h28.073a72.364 72.364 0 0 0 -4.073 24v33.491c-9.311 3.577-16 13.209-16 24.509v30a8 8 0 0 0 8 8h5.333a8 8 0 0 0 2.667-15.545v-22.455c0-5.514 3.589-10 8-10s8 4.486 8 10v22.455a8 8 0 0 0 2.667 15.545h5.333a8 8 0 0 0 8-8v-30c0-11.3-6.689-20.932-16-24.509v-33.491a56.1 56.1 0 0 1 5.358-24h55.81l-28.814 93.647a8 8 0 0 0 7.646 10.353h17.193l-22.193 17.753a8 8 0 0 0 -1.077 11.453l36.683 42.794h-134.606zm384 152h-64v-16h64zm-24-32h-16v-16h16zm-24-160h32v16h-8a8 8 0 0 0 0 16h8v16h-8a8 8 0 0 0 0 16h8v16h-8a8 8 0 0 0 0 16h8v32h-32zm-24 16a24.068 24.068 0 0 1 8 1.375v118.625a8 8 0 0 0 8 8v16h-16a8 8 0 0 0 -8 8v24h-102.606l36.68-42.794a8 8 0 0 0 -1.074-11.453l-22.193-17.753h17.193a8 8 0 0 0 7.646-10.353l-28.814-93.647h55.81a56.1 56.1 0 0 1 5.358 24v49.376a24 24 0 1 0 16 0v-49.376a72.364 72.364 0 0 0 -4.073-24zm-24 96a8 8 0 1 1 -8-8 8.009 8.009 0 0 1 8 8zm-62.369-112a112.644 112.644 0 0 0 14.613-10.489 56 56 0 0 1 15 10.489zm70.369-88a24.035 24.035 0 0 1 -20.592 23.754 111.134 111.134 0 0 0 2.7-11.217 79.33 79.33 0 0 0 17.77-14.846c.072.766.122 1.535.122 2.309zm-53.942-143.111c34.155 0 61.942 33.628 61.942 74.963a86.362 86.362 0 0 1 -9.781 40.4 72.189 72.189 0 0 1 -14.219 18.812v-14.064a8 8 0 0 0 -8-8c-44.021 0-78.22-33.432-87.378-43.332q3.528-4.344 6.874-9a223.318 223.318 0 0 0 29.004-56.158 7.969 7.969 0 0 0 3.636-.422 51.911 51.911 0 0 1 17.922-3.199zm-93.258-24.889a98.479 98.479 0 0 1 58 18.972 207.481 207.481 0 0 1 -28.3 56.359c-28.931 40.257-67.455 60.669-114.5 60.669a8 8 0 0 0 -8 8v.723a106.174 106.174 0 0 1 -8-40.723c0-57.346 45.219-104 100.8-104zm-108.8 168a23.993 23.993 0 0 1 3.42-12.333 119.792 119.792 0 0 0 14.199 23.333 111.116 111.116 0 0 0 2.973 12.756 24.035 24.035 0 0 1 -20.592-23.756zm32-16.188c39.458-1.869 74.173-17.628 101.925-46.109 11.341 12.1 44.909 43.568 90.075 46.993v7.304a96 96 0 0 1 -192 0z"/><circle cx="272" cy="200" r="8"/><circle cx="192" cy="200" r="8"/><path d="m224 224h16a8 8 0 0 0 0-16h-8v-8a8 8 0 0 0 -16 0v16a8 8 0 0 0 8 8z"/><path d="m232 264c34.932 0 46.893-27.742 47.385-28.923a8 8 0 1 0 -14.77-6.154c-.079.191-8.23 19.077-32.615 19.077-23.955 0-32.248-18.238-32.636-19.126a8 8 0 0 0 -14.749 6.2c.492 1.184 12.453 28.926 47.385 28.926z"/></svg>