<svg id="Layer_3" enable-background="new 0 0 64 64" height="512" viewBox="0 0 64 64" width="512" xmlns="http://www.w3.org/2000/svg"><g><path d="m31.597 41c4.145 0 8.166-1.411 11.403-4-2.209 0-4-1.791-4-4v-9c0-8.837-7.163-16-16-16-8.837 0-16 7.163-16 16v9c0 2.209-1.791 4-4 4 3.237 2.589 7.258 4 11.403 4z" fill="#606060"/><path d="m33 14h-20l-2-12h24z" fill="#c7e2fb"/><path d="m12.604 11.624c1.241.239 2.544.376 3.896.376 8.008 0 14.5-4.477 14.5-10h-20z" fill="#ebf7fe"/><path d="m31 44c7.18 0 13 5.82 13 11v7h-42v-7c0-5.18 5.82-11 13-11z" fill="#c7e2fb"/><path d="m14.5 60c11.362 0 20.984-5.684 24.28-13.535-2.171-1.492-4.858-2.465-7.78-2.465h-16c-7.18 0-13 5.82-13 11v2.495c3.695 1.592 7.957 2.505 12.5 2.505z" fill="#ebf7fe"/><path d="m20 51h6c3.81 0 6.903-3.046 6.992-6.834-.651-.099-1.313-.166-1.992-.166h-16c-.679 0-1.341.067-1.992.166.089 3.788 3.182 6.834 6.992 6.834z" fill="#b8bec5"/><path d="m35 24v4c0 6.627-5.373 12-12 12-6.627 0-12-5.373-12-12v-4h4.615c3.252 0 6.177-1.98 7.385-5 1.208 3.02 4.133 5 7.385 5z" fill="#efbe9c"/><path d="m23 40c-1.787 0-3.476-.401-5-1.102v5.102l5 3 5-3v-5.102c-1.524.701-3.213 1.102-5 1.102z" fill="#efbe9c"/><path d="m48 36h8v18h-8z" fill="#c7e2fb"/><path d="m48 58h8v4h-8z" fill="#c7e2fb"/><path d="m50 54h4v4h-4z" fill="#4472b0"/><path d="m50 32h4v4h-4z" fill="#4472b0"/><circle cx="58" cy="22" fill="#e5ebf0" r="4"/><circle cx="46" cy="12" fill="#e5ebf0" r="4"/><path d="m46 16c2.209 0 4-1.791 4-4 0-1.105-.448-2.105-1.172-2.828l-5.657 5.657c.724.723 1.724 1.171 2.829 1.171z" fill="#669e54"/><path d="m58 26c1.105 0 2.105-.448 2.828-1.172l-5.657-5.657c-.723.724-1.171 1.724-1.171 2.829 0 2.209 1.791 4 4 4z" fill="#669e54"/><g><path d="m31 43h-2v-1h2.597c4.355 0 8.627-1.498 12.028-4.219.331-.266.459-.712.318-1.112s-.518-.669-.943-.669c-1.654 0-3-1.346-3-3v-9c0-4.783-2.029-9.34-5.56-12.558l1.546-9.277c.049-.29-.033-.586-.224-.811-.189-.225-.468-.354-.762-.354h-24c-.294 0-.573.129-.763.354s-.272.521-.224.811l1.546 9.277c-3.53 3.218-5.559 7.775-5.559 12.558v9c0 1.654-1.346 3-3 3-.425 0-.803.269-.943.669s-.013.847.318 1.112c3.401 2.721 7.673 4.219 12.028 4.219h2.597v1h-2c-7.885 0-14 6.451-14 12v7c0 .553.447 1 1 1h42c.553 0 1-.447 1-1v-7c0-5.549-6.115-12-14-12zm-8-4c-6.065 0-11-4.935-11-11v-3h3.615c3.011 0 5.741-1.478 7.385-3.885 1.644 2.407 4.374 3.885 7.385 3.885h3.615v3c0 6.065-4.935 11-11 11zm-4 1.364c1.261.409 2.604.636 4 .636s2.739-.227 4-.636v3.07l-4 2.4-4-2.4zm14.819-37.364-1.666 10h-18.306l-1.666-10zm-19.416 37c-3.204 0-6.357-.905-9.07-2.578 1.585-.84 2.667-2.507 2.667-4.422v-9c0-3.777 1.429-7.397 3.961-10.152l.053.316c.08.482.497.836.986.836h20c.489 0 .906-.354.986-.836l.053-.316c2.532 2.755 3.961 6.375 3.961 10.152v9c0 1.915 1.082 3.582 2.667 4.422-2.713 1.673-5.866 2.578-9.07 2.578h-2.597v-.479c4.154-2.172 7-6.518 7-11.521v-4c0-.553-.447-1-1-1h-4.615c-2.859 0-5.394-1.716-6.456-4.371-.153-.38-.52-.629-.929-.629s-.776.249-.929.629c-1.062 2.655-3.596 4.371-6.456 4.371h-4.615c-.553 0-1 .447-1 1v4c0 5.003 2.846 9.349 7 11.521v.479zm3.32 5 4.762 2.857c.159.095.337.143.515.143s.356-.048.515-.143l4.762-2.857h2.723c.305 0 .604.023.903.046-.497 2.811-2.952 4.954-5.903 4.954h-6c-2.951 0-5.406-2.143-5.903-4.954.299-.023.598-.046.903-.046zm-14.723 10c0-3.852 3.877-8.373 9.124-9.642.648 3.765 3.929 6.642 7.876 6.642h2v9h-13v-7h-2v7h-4zm40 6h-4v-7h-2v7h-13v-9h2c3.947 0 7.228-2.877 7.876-6.642 5.247 1.269 9.124 5.79 9.124 9.642z"/><path d="m23 35c-1.103 0-2-.897-2-2h-2c0 2.206 1.794 4 4 4s4-1.794 4-4h-2c0 1.103-.897 2-2 2z"/><path d="m22 11h2v-2h2v-2h-2v-2h-2v2h-2v2h2z"/><path d="m30 55h5v2h-5z"/><path d="m16 27h2v3h-2z"/><path d="m28 27h2v3h-2z"/><path d="m56 35h-1v-3c0-.553-.447-1-1-1h-1v-3h-2v3h-1c-.553 0-1 .447-1 1v3h-1c-.553 0-1 .447-1 1v18c0 .553.447 1 1 1h1v2h-1c-.553 0-1 .447-1 1v4c0 .553.447 1 1 1h8c.553 0 1-.447 1-1v-4c0-.553-.447-1-1-1h-1v-2h1c.553 0 1-.447 1-1v-18c0-.553-.447-1-1-1zm-5-2h2v2h-2zm4 28h-6v-2h6zm-2-4h-2v-2h2zm2-4h-6v-4h4v-2h-4v-2h2v-2h-2v-2h2v-2h-2v-2h6z"/><path d="m58 17c-2.757 0-5 2.243-5 5s2.243 5 5 5 5-2.243 5-5-2.243-5-5-5zm3 5c0 .462-.113.894-.301 1.285l-3.985-3.985c.392-.187.824-.3 1.286-.3 1.654 0 3 1.346 3 3zm-6 0c0-.462.113-.894.301-1.285l3.985 3.985c-.392.187-.824.3-1.286.3-1.654 0-3-1.346-3-3z"/><path d="m51 12c0-2.757-2.243-5-5-5s-5 2.243-5 5 2.243 5 5 5 5-2.243 5-5zm-5-3c.462 0 .894.113 1.285.301l-3.985 3.985c-.187-.392-.3-.824-.3-1.286 0-1.654 1.346-3 3-3zm0 6c-.462 0-.894-.113-1.285-.301l3.985-3.985c.187.392.3.824.3 1.286 0 1.654-1.346 3-3 3z"/></g></g></svg>