<svg id="filled_outline" height="512" viewBox="0 0 512 512" width="512" xmlns="http://www.w3.org/2000/svg" data-name="filled outline"><path d="m392 328-48-56-8-40-56 32 16 80 40 48 16 96h136v-144l-48-16z" fill="#02c26a"/><path d="m488 216v72a56 56 0 0 1 -55.99994 56h-.00012a56 56 0 0 1 -55.99994-56v-72l32-24h24z" fill="#ffceb6"/><path d="m294.59033 108.48828a8.00009 8.00009 0 0 1 -8-8v-6.11133a36.74413 36.74413 0 0 1 20.42188-33.04395 8.00005 8.00005 0 1 1 7.15625 14.31054 20.83108 20.83108 0 0 0 -11.57813 18.7334v6.11133a8.00008 8.00008 0 0 1 -8 8.00001z" fill="#ffb089"/><path d="m104 176-8 24-55.54057 30.85587a32 32 0 0 0 -16.45943 27.97304v53.17109l16 11.42859v164.57141h184v-252.44445l-64-35.55555-8-24z" fill="#548aff"/><path d="m40 323.429 40 28.571 8.696-15.652h79.017l56.287-64.348v216h-184z" fill="#4976f2"/><path d="m160 200-16 16-16 24-16-24-16-16 8-24h48z" fill="#ffbfa1"/><path d="m184 72v56a56 56 0 1 1 -112 0v-56a47.99956 47.99956 0 0 1 48-48h16a47.99689 47.99689 0 0 1 48 48z" fill="#ffceb6"/><path d="m488 216v16h-31.01519a42.24617 42.24617 0 0 1 -40.98481-32l-.23887.95547a40.98481 40.98481 0 0 1 -39.76113 31.04453v-16a40 40 0 0 1 40-40h32a40 40 0 0 1 40 40z" fill="#b1712c"/><path d="m177.26 47.47-.26.53a57.89712 57.89712 0 0 1 -51.78 32h-53.22v-8a47.99956 47.99956 0 0 1 48-48h16a47.95452 47.95452 0 0 1 41.26 23.47z" fill="#b1712c"/><path d="m312 144h24l16 24v32l-40 16-56 104h-64z" fill="#ffb089"/><path d="m288.58064 259.09678-24.58064-131.09678-7.71663-45.96809a36.68558 36.68558 0 0 1 5.878-24.89977 36.68553 36.68553 0 0 1 23.32963-15.62368l5.96158-1.19231a16 16 0 0 1 19.13786 15.68929v12.48313l3.87556-6.74827a11.30256 11.30256 0 0 1 14.84518-4.48578l.01072.00535a11.28387 11.28387 0 0 1 6.24328 10.43318 103.53226 103.53226 0 0 1 -20.66074 59.04346l-4.314 5.752 25.40956 99.51149z" fill="#ffbfa1"/><path d="m120 280 32 16 96-88 8-32 32-8 16 8v40l-32 16-104 128h-32l-47.304-23.652z" fill="#ffceb6"/><path d="m112 152h8a24.0275 24.0275 0 0 0 24-24v-8h-16v8a8.00917 8.00917 0 0 1 -8 8h-8z"/><circle cx="104" cy="104" r="8"/><circle cx="152" cy="104" r="8"/><path d="m432 288a8.00917 8.00917 0 0 1 -8 8h-8v16h8a24.0275 24.0275 0 0 0 24-24v-8h-16z"/><path d="m448 168h-32a48.054 48.054 0 0 0 -48 48v71.70728l-16.56543-19.32642-7.58984-37.9502c-.02771-.13842-.07227-.27075-.10694-.40673l.01367-.00342-4.19458-16.42725 15.41431-6.16553a7.99975 7.99975 0 0 0 5.02881-7.42773v-32a7.99836 7.99836 0 0 0 -1.34375-4.4375l-16-24a7.99943 7.99943 0 0 0 -6.65625-3.5625h-16.2561l-.45386-1.77734 2.01416-2.68653a110.96709 110.96709 0 0 0 22.2578-63.60547 19.34612 19.34612 0 0 0 -10.66943-17.83007c-.02686-.0127-.05518-.02735-.084-.041a19.2524 19.2524 0 0 0 -15.17883-.78686 24.0074 24.0074 0 0 0 -27.746-16.801l-5.96143 1.19238a44.68533 44.68533 0 0 0 -35.57763 49.36035c.01416.11133.03027.22168.04882.332l7.7168 45.96777c.0083.0498.01709.10058.02686.15039l6.84985 36.53271-8.92749 2.23194a7.99863 7.99863 0 0 0 -5.8208 5.82031l-7.417 29.668-21.75061 19.938-52.4657-29.14795-4.19861-12.59546a63.99111 63.99111 0 0 0 29.5932-53.92217v-56a56.06322 56.06322 0 0 0 -56-56h-16a56.06322 56.06322 0 0 0 -56 56v56a63.99111 63.99111 0 0 0 29.59314 53.92212l-4.19861 12.59546-52.8208 29.34472a40.02518 40.02518 0 0 0 -20.57373 34.9668v53.1709a7.99923 7.99923 0 0 0 3.3501 6.50977l12.6499 9.03564v160.45459a8.00008 8.00008 0 0 0 8 8h184a8.00008 8.00008 0 0 0 8-8v-160h24a8.00148 8.00148 0 0 0 7.04395-4.207l15.13452-28.10742 9.9768 49.88379a8.00377 8.00377 0 0 0 1.69873 3.55175l38.61133 46.334 15.64356 93.86035a8 8 0 0 0 7.89111 6.68453h136a8.00008 8.00008 0 0 0 8-8v-144a8.00071 8.00071 0 0 0 -5.47021-7.58984l-12.3877-4.12915a63.76122 63.76122 0 0 0 17.85791-44.28101v-72a48.054 48.054 0 0 0 -48-48zm-64 48a32.03635 32.03635 0 0 1 32-32h32a32.03635 32.03635 0 0 1 32 32v8h-23.01514a34.1968 34.1968 0 0 1 -33.22363-25.94043 8.00016 8.00016 0 0 0 -15.52246 0l-.23877.95508a32.93379 32.93379 0 0 1 -24 24.00781zm-52.28125-64 12.28125 18.42188v24.16212l-8.43555 3.374-11.7351-45.958zm-59.84175-25.40039-7.6748-45.71582a28.6851 28.6851 0 0 1 22.85791-31.53027l5.96191-1.19239a7.99908 7.99908 0 0 1 9.56836 7.84473v7.93408a36.70946 36.70946 0 0 0 -16 30.437v6.11133h16v-6.11132a20.83108 20.83108 0 0 1 11.57813-18.7334 8.00371 8.00371 0 0 0 3.35937-3.17089l3.87549-6.74805a3.30613 3.30613 0 0 1 4.3374-1.31055l.0459.02246a3.29646 3.29646 0 0 1 1.78223 3.01953 95.04869 95.04869 0 0 1 -19.06446 54.48047l-4.314 5.752a8.00075 8.00075 0 0 0 -1.35156 6.77929l23.90234 93.6084-32.36952 18.49703-2.8827-15.37353 16.08863-8.04444a7.99979 7.99979 0 0 0 4.42237-7.15527v-40a7.99979 7.99979 0 0 0 -4.42236-7.15527l-16-8a7.98239 7.98239 0 0 0 -5.51807-.60547l-7.52283 1.88061zm-18.47119 87.29785a7.99769 7.99769 0 0 0 2.35547-3.957l6.83594-27.34375 24.47217-6.11816 8.93061 4.46579v30.11132l-27.57764 13.78907a8.00164 8.00164 0 0 0 -2.63134 2.11035l-101.59864 125.04492h-26.30371l-38.14233-19.071 23.52685-42.34839 25.14917 12.5747a7.99641 7.99641 0 0 0 8.9834-1.25781zm-133.40581-181.89746h16a39.95855 39.95855 0 0 1 31.91479 15.91943 49.5801 49.5801 0 0 1 -42.69165 24.08057h-45.22314a40.04552 40.04552 0 0 1 40-40zm-40 96v-40h45.22314a65.48449 65.48449 0 0 0 50.13453-23.0918 40.03746 40.03746 0 0 1 .64233 7.0918v56a48 48 0 0 1 -96 0zm48 64a63.72164 63.72164 0 0 0 19.84546-3.16528l3.00146 9.00439-12.50366 12.50366a8.006 8.006 0 0 0 -.99951 1.21973l-9.34375 14.01562-9.34375-14.01562a8.006 8.006 0 0 0 -.99951-1.21973l-12.50366-12.50366 3.00146-9.00439a63.72164 63.72164 0 0 0 19.84546 3.16528zm-96 66.8291a24.01548 24.01548 0 0 1 12.34473-20.98047l50.26527-27.9248 11.17321 11.17285 15.56055 23.34082a7.99959 7.99959 0 0 0 13.3125 0l15.56055-23.34082 11.17319-11.17285 45.24866 25.13794-55.98584 51.32007-27.07519-13.53711-32-16-7.15528 14.31054 24.52687 12.26373-31.59082 56.86323-45.3584-32.39942zm184 221.1709h-168v-141.02588l27.3501 19.53565a8.00035 8.00035 0 0 0 11.64306-2.625l4.97571-8.9563 40.45349 20.2268a7.99583 7.99583 0 0 0 3.57764.84473h32a8.00133 8.00133 0 0 0 6.209-2.95508l30.099-37.04492h11.692zm35.22168-168h-33.91368l59.35523-73.05273 3.00525 16.02783-3.6377 2.07861a8.0012 8.0012 0 0 0 -3.87549 8.51563l1.10144 5.50732zm228.77832 168h-121.22314l-14.88575-89.31543a7.99565 7.99565 0 0 0 -1.74511-3.80566l-38.69971-46.43946-14.4707-72.35445 41.35641-23.63188 5.82324 29.11622a7.99787 7.99787 0 0 0 1.77051 3.63671l48 56 .448-.384a63.85627 63.85627 0 0 0 76.47851 11.22852l17.14774 5.71505zm-48-144a48.054 48.054 0 0 1 -48-48v-48.67212a48.90118 48.90118 0 0 0 32.16553-20.24488 50.17489 50.17489 0 0 0 40.81933 20.917h23.01514v48a48.054 48.054 0 0 1 -48 48z"/><circle cx="408" cy="264" r="8"/><circle cx="456" cy="264" r="8"/></svg>