<?xml version="1.0" encoding="utf-8"?>
<!-- Generator: Adobe Illustrator 24.0.1, SVG Export Plug-In . SVG Version: 6.00 Build 0)  -->
<svg version="1.1" id="Calque_1" xmlns="http://www.w3.org/2000/svg" xmlns:xlink="http://www.w3.org/1999/xlink" x="0px" y="0px"
	 viewBox="0 0 493 493" style="enable-background:new 0 0 493 493;" xml:space="preserve">
<style type="text/css">
	.st0{fill:#EAA97D;}
	.st1{fill:#090E16;}
	.st2{fill:#F9CFCF;}
	.st3{fill:#A4C9FF;}
	.st4{fill:#604219;}
	.st5{fill:#F9A7A7;}
	.st6{fill:#B5A915;}
	.st7{fill:#6BDDDD;}
	.st8{fill:#E0EBFC;}
	.st9{fill:#3762CC;}
	.st10{fill:#4671C6;}
	.st11{fill:#513B0E;}
</style>
<path class="st0" d="M485,412H13.2c-2.2,0-4-1.8-4-4v-34.9c0-2.2,1.8-4,4-4H485c2.2,0,4,1.8,4,4V408C489,410.2,487.2,412,485,412z"
	/>
<path class="st1" d="M485,416H13.2c-4.4,0-8-3.6-8-8v-34.9c0-4.4,3.6-8,8-8H485c4.4,0,8,3.6,8,8V408C493,412.4,489.4,416,485,416z
	 M13.2,373.1V408H485l0-34.9H13.2z"/>
<path class="st0" d="M206.9,412h84.5v74.3h-84.5V412z"/>
<path class="st1" d="M291.4,490.3h-84.5c-2.2,0-4-1.8-4-4V412c0-2.2,1.8-4,4-4h84.5c2.2,0,4,1.8,4,4v74.3
	C295.3,488.5,293.6,490.3,291.4,490.3z M210.9,482.3h76.5V416h-76.5V482.3z"/>
<path class="st2" d="M389.8,207.8c-40.5,0-73.3,32.8-73.3,73.3v38.7c0,33.2,22,61.2,52.2,70.2v18.5h64.1v-29.4
	c18.4-13.3,30.3-34.9,30.3-59.4v-38.7C463.2,240.6,430.3,207.8,389.8,207.8z"/>
<path class="st3" d="M153.4,358.8c0-0.2,0-0.4,0-0.7c0-0.4-0.1-0.9-0.1-1.3c0-0.3-0.1-0.5-0.1-0.8c0-0.4-0.1-0.7-0.1-1.1
	c0-0.3-0.1-0.6-0.1-0.8c-0.1-0.3-0.1-0.7-0.2-1c-0.1-0.3-0.1-0.6-0.2-0.9c-0.1-0.3-0.1-0.6-0.2-0.9c-0.1-0.3-0.1-0.6-0.2-0.9
	c-0.1-0.2-0.1-0.5-0.2-0.7c-0.4-1.4-0.8-2.7-1.3-4c0-0.1-0.1-0.2-0.1-0.3c-0.2-0.4-0.4-0.9-0.5-1.3c-0.1-0.1-0.1-0.2-0.2-0.4
	c-0.2-0.4-0.4-0.9-0.6-1.3c0-0.1-0.1-0.2-0.1-0.3c-0.2-0.4-0.5-0.9-0.7-1.3c0,0,0-0.1-0.1-0.1c-6.8-12.3-19.7-20.9-34.7-21.5
	l-0.1,0.1c0,0,0,0.1,0,0.1c0,0-0.1,0-0.1,0.1l0,0h0c-16.3,10.7-37.5,10.7-53.7-0.1l0,0c0,0,0,0,0,0h0c-11.8,1-22.2,7-29.1,15.8h0
	c0,0-0.1,0.1-0.1,0.1c-0.2,0.3-0.4,0.6-0.7,0.9c-0.1,0.2-0.3,0.4-0.4,0.6c-0.2,0.3-0.4,0.6-0.6,0.9c-0.1,0.2-0.3,0.4-0.4,0.6
	c-0.2,0.3-0.4,0.6-0.6,0.9c-0.1,0.2-0.3,0.4-0.4,0.6c-0.2,0.3-0.3,0.6-0.5,0.9c-0.1,0.2-0.2,0.5-0.4,0.7c-0.2,0.3-0.3,0.6-0.5,0.9
	c-0.1,0.2-0.2,0.5-0.4,0.7c-0.1,0.3-0.3,0.6-0.4,0.9c-0.1,0.3-0.3,0.6-0.4,0.9c-0.2,0.5-0.4,0.9-0.6,1.4c-0.1,0.3-0.2,0.7-0.4,1
	c-0.1,0.3-0.2,0.5-0.3,0.8c-0.1,0.3-0.2,0.6-0.3,1c-0.1,0.3-0.2,0.5-0.2,0.8c-0.1,0.3-0.2,0.7-0.3,1c-0.1,0.3-0.1,0.5-0.2,0.8
	c-0.1,0.3-0.2,0.7-0.2,1c-0.1,0.3-0.1,0.5-0.2,0.8c-0.1,0.4-0.1,0.7-0.2,1.1c0,0.3-0.1,0.5-0.1,0.8c-0.1,0.4-0.1,0.7-0.1,1.1
	c0,0.2-0.1,0.5-0.1,0.7c0,0.4-0.1,0.8-0.1,1.3c0,0.2,0,0.4,0,0.6c0,0.6,0,1.3,0,1.9v8.3h131.7v-8.3
	C153.5,360.1,153.5,359.5,153.4,358.8z"/>
<path class="st2" d="M60.1,320.5l-0.3-0.8C59.8,319.9,60,320.2,60.1,320.5z"/>
<path class="st2" d="M113.5,319.7l-0.2,0.5C113.4,320.1,113.4,319.9,113.5,319.7z"/>
<path class="st2" d="M87,307.7c-9.9,0-19.3-2.5-27.5-6.8v17c0,0.5,0.1,1,0.2,1.4l0,0c16.3,10.8,37.5,10.8,53.9,0
	c0.1-0.5,0.2-1,0.2-1.5v-16.6C105.7,305.4,96.6,307.7,87,307.7z"/>
<path class="st2" d="M145.9,226.5c-0.1,0-0.2,0-0.4,0v-5.6c0-32.5-26.4-58.9-58.9-58.9s-58.9,26.4-58.9,58.9v5.6c-0.1,0-0.2,0-0.4,0
	c-9.9,0-18,8-18,18c0,9.9,8,18,18,18c0.7,0,1.3,0,1.9-0.1c6.1,26,29.4,45.5,57.3,45.5c27.9,0,51.2-19.4,57.3-45.5
	c0.6,0.1,1.3,0.1,1.9,0.1c9.9,0,18-8,18-18C163.8,234.5,155.8,226.5,145.9,226.5z"/>
<path class="st1" d="M86.6,311.7c-28.3,0-52.7-18.5-60.4-45.4c-11.6-0.6-20.8-10.2-20.8-21.9c0-10.9,7.9-19.9,18.3-21.7v-1.8
	c0-34.7,28.2-62.9,62.9-62.9c34.7,0,62.9,28.2,62.9,62.9v1.8c10.4,1.7,18.3,10.8,18.3,21.7c0,11.7-9.2,21.3-20.8,21.9
	C139.3,293.2,114.9,311.7,86.6,311.7z M29.3,258.3c1.8,0,3.5,1.3,3.9,3.1c5.8,24.9,27.8,42.4,53.4,42.4c25.6,0,47.6-17.4,53.4-42.4
	c0.5-2,2.3-3.3,4.3-3.1c0.5,0.1,1,0.1,1.5,0.1c7.7,0,14-6.3,14-14c0-7.7-6.2-13.9-13.9-14c-0.2,0-0.4,0-0.4,0c-1,0-2.1-0.4-2.8-1.2
	c-0.8-0.7-1.2-1.8-1.2-2.8v-5.6c0-30.3-24.6-54.9-54.9-54.9c-30.3,0-54.9,24.6-54.9,54.9v5.6c0,1.1-0.4,2.1-1.2,2.8
	c-0.8,0.8-1.8,1.2-2.9,1.1c-0.1,0-0.3,0-0.4,0c-7.6,0-13.9,6.3-13.9,14s6.3,14,14,14c0.5,0,1,0,1.5-0.1
	C29,258.3,29.2,258.3,29.3,258.3z"/>
<path class="st1" d="M153.5,373.1H21.8c-2.2,0-4-1.8-4-4v-8.3c0-22.5,16-41.2,37.7-44.9v-14.8c0-1.4,0.7-2.7,1.9-3.4
	c1.2-0.7,2.7-0.8,3.9-0.1c7.8,4.2,16.7,6.4,25.6,6.4c8.8,0,17.2-2,25-6c1.2-0.6,2.7-0.6,3.9,0.1c1.2,0.7,1.9,2,1.9,3.4v14.1
	c22.6,2.9,39.7,22,39.7,45.2v8.3C157.5,371.3,155.7,373.1,153.5,373.1z M25.8,365.1h123.7v-4.3c0-20.2-15.8-36.7-36-37.5
	c-1.1,0-2.1-0.5-2.9-1.4c-0.7-0.8-1.1-1.9-0.9-3l0.1-0.9v-10.2c-7.2,2.8-14.9,4.3-22.8,4.3c-8,0-16.1-1.6-23.5-4.6v10.8
	c0,0.1,0,0.2,0.1,0.4c0.2,1.1,0,2.3-0.7,3.2c-0.7,0.9-1.7,1.5-2.9,1.6c-19.2,1.7-34.2,18.1-34.2,37.4L25.8,365.1L25.8,365.1z"/>
<path class="st4" d="M126.3,211.7h31.1c2.3,0,4.2-1.9,4.2-4.2v-23.8c0-26.4-21.4-47.9-47.9-47.9h-1.5c-6.9,0-12.5,5.6-12.5,12.5
	v36.7C99.7,199.8,111.6,211.7,126.3,211.7z"/>
<path class="st4" d="M62.4,211.7H8.2c-2.3,0-4.2-1.9-4.2-4.2v-19.7c0-28.7,23.3-52,52-52h31.3c6.9,0,12.5,5.6,12.5,12.5v25.9
	C99.8,195,83,211.7,62.4,211.7z"/>
<g>
	<path class="st1" d="M157.4,215.7h-31.1c-16.9,0-30.6-13.7-30.6-30.6v-36.7c0-9.1,7.4-16.5,16.5-16.5h1.5
		c28.6,0,51.9,23.3,51.9,51.9v23.8C165.5,212.1,161.9,215.7,157.4,215.7z M112.2,139.9c-4.7,0-8.5,3.8-8.5,8.5v36.7
		c0,12.5,10.1,22.6,22.6,22.6h31.1c0.1,0,0.2-0.1,0.2-0.2v-23.8c0-24.2-19.7-43.9-43.9-43.9H112.2z"/>
	<path class="st1" d="M62.4,215.7H8.2c-4.5,0-8.2-3.7-8.2-8.2v-19.7c0-30.9,25.1-56,56-56h31.3c9.1,0,16.5,7.4,16.5,16.5v25.9
		C103.8,197.2,85.2,215.7,62.4,215.7z M56,139.9c-26.5,0-48,21.5-48,48v19.7c0,0.1,0.1,0.2,0.2,0.2h54.2c18.4,0,33.4-15,33.4-33.4
		v-25.9c0-4.7-3.8-8.5-8.5-8.5H56z"/>
	<path class="st1" d="M55.6,246.8c-3.3,0-6-2.7-6-6v-10c0-3.3,2.7-6,6-6c3.3,0,6,2.7,6,6v10C61.5,244.1,58.9,246.8,55.6,246.8z"/>
	<path class="st1" d="M117.7,246.8c-3.3,0-6-2.7-6-6v-10c0-3.3,2.7-6,6-6c3.3,0,6,2.7,6,6v10C123.7,244.1,121,246.8,117.7,246.8z"/>
	<path class="st1" d="M62.6,261.5H51.4c-12.7,0-23-10.3-23-23s10.3-23,23-23h11.2c12.7,0,23,10.3,23,23S75.2,261.5,62.6,261.5z
		 M51.4,223.5c-8.3,0-15,6.7-15,15c0,8.2,6.7,15,15,15h11.2c8.3,0,15-6.7,15-15c0-8.3-6.7-15-15-15H51.4z"/>
	<path class="st1" d="M121.9,261.5h-11.2c-12.7,0-23-10.3-23-23s10.3-23,23-23h11.2c12.7,0,23,10.3,23,23S134.6,261.5,121.9,261.5z
		 M110.7,223.5c-8.3,0-15,6.7-15,15c0,8.2,6.7,15,15,15h11.2c8.3,0,15-6.7,15-15c0-8.3-6.7-15-15-15H110.7z"/>
	<path class="st1" d="M96.4,243.4H76.1c-2.2,0-4-1.8-4-4c0-2.2,1.8-4,4-4h20.3c2.2,0,4,1.8,4,4C100.4,241.6,98.6,243.4,96.4,243.4z"
		/>
</g>
<path class="st5" d="M100.1,278.5c0-3.3-6.2-6.1-13.9-6.1s-13.9,2.7-13.9,6.1s6.2,6.1,13.9,6.1S100.1,281.8,100.1,278.5z"/>
<path class="st6" d="M319.4,271.3l-10.8-66.5H174.9l-10.8,66.4l0,0.1c-1.5,5.5-2.2,11.2-2.2,16.9v0c0,14,11.7,25.3,26.2,25.3h107.4
	c14.4,0,26.2-11.3,26.2-25.3v0C321.6,282.5,320.8,276.8,319.4,271.3z"/>
<path class="st1" d="M295.4,317.5H188.1c-16.6,0-30.2-13.2-30.2-29.3c0-6,0.8-12,2.3-17.8l10.7-66.2c0.3-1.9,2-3.4,3.9-3.4h133.7
	c2,0,3.6,1.4,4,3.4l10.7,66.3c1.5,5.8,2.3,11.8,2.3,17.7C325.6,304.4,312.1,317.5,295.4,317.5z M178.3,208.8l-10.2,63.1
	c0,0.1-0.1,0.3-0.1,0.4c-1.4,5.2-2.1,10.6-2.1,15.9c0,11.8,9.9,21.3,22.2,21.3h107.4c12.2,0,22.2-9.6,22.2-21.3
	c0-5.4-0.7-10.7-2.1-15.9c0-0.1-0.1-0.3-0.1-0.4l-10.2-63.2H178.3z"/>
<path class="st7" d="M308.6,358.8c0-0.2,0-0.4,0-0.7c0-0.4-0.1-0.8-0.1-1.3c0-0.3-0.1-0.5-0.1-0.8c0-0.4-0.1-0.7-0.1-1.1
	c0-0.3-0.1-0.6-0.1-0.8c-0.1-0.3-0.1-0.7-0.2-1c-0.1-0.3-0.1-0.6-0.2-0.9c-0.1-0.3-0.1-0.6-0.2-0.9c-0.1-0.3-0.1-0.6-0.2-0.9
	c-0.1-0.3-0.1-0.5-0.2-0.7c-0.4-1.4-0.8-2.7-1.3-4c0-0.1-0.1-0.2-0.1-0.3c-0.2-0.4-0.4-0.9-0.5-1.3c-0.1-0.1-0.1-0.2-0.2-0.4
	c-0.2-0.4-0.4-0.9-0.6-1.3c0-0.1-0.1-0.2-0.1-0.3c-0.2-0.4-0.5-0.9-0.7-1.3c0,0,0-0.1-0.1-0.1c-6.8-12.3-19.7-20.9-34.7-21.5
	l-0.1,0.1h0.1l-4.9,12.9c-1.2,3.1-4.1,5.1-7.5,5.1h-29.3c-3.3,0-6.3-2-7.5-5.1l-4.2-11.2c-0.3-0.5-0.5-1.1-0.6-1.7
	c-11.8,1-22.2,7-29.1,15.8h0c0,0-0.1,0.1-0.1,0.1c-0.2,0.3-0.4,0.6-0.7,0.9c-0.1,0.2-0.3,0.4-0.4,0.6c-0.2,0.3-0.4,0.6-0.6,0.9
	c-0.1,0.2-0.3,0.4-0.4,0.6c-0.2,0.3-0.4,0.6-0.6,0.9c-0.1,0.2-0.3,0.4-0.4,0.6c-0.2,0.3-0.3,0.6-0.5,0.9c-0.1,0.2-0.2,0.5-0.4,0.7
	c-0.2,0.3-0.3,0.6-0.5,0.9c-0.1,0.2-0.2,0.5-0.4,0.7c-0.1,0.3-0.3,0.6-0.4,0.9c-0.1,0.3-0.2,0.6-0.4,0.9c-0.2,0.5-0.4,0.9-0.6,1.4
	c-0.1,0.3-0.2,0.7-0.4,1c-0.1,0.3-0.2,0.5-0.3,0.8c-0.1,0.3-0.2,0.6-0.3,1c-0.1,0.3-0.2,0.5-0.2,0.8c-0.1,0.3-0.2,0.7-0.3,1
	c-0.1,0.3-0.1,0.5-0.2,0.8c-0.1,0.3-0.2,0.7-0.2,1c-0.1,0.3-0.1,0.5-0.2,0.8c-0.1,0.3-0.1,0.7-0.2,1.1c0,0.3-0.1,0.5-0.1,0.8
	c-0.1,0.4-0.1,0.7-0.1,1.1c0,0.2-0.1,0.5-0.1,0.7c0,0.4-0.1,0.8-0.1,1.3c0,0.2,0,0.4,0,0.6c0,0.6,0,1.3,0,1.9v8.3h131.7v-8.3
	C308.6,360.1,308.6,359.5,308.6,358.8z"/>
<path class="st2" d="M301,232c-0.1,0-0.2,0-0.4,0v-5.6c0-32.5-26.4-58.9-58.9-58.9s-58.9,26.4-58.9,58.9v5.6c-0.1,0-0.2,0-0.4,0
	c-9.9,0-18,8-18,18c0,9.9,8,18,18,18c0.7,0,1.3,0,1.9-0.1c6.1,26,29.4,45.5,57.3,45.5s51.2-19.4,57.3-45.5c0.6,0.1,1.3,0.1,1.9,0.1
	c9.9,0,18-8,18-18C319,240,310.9,232,301,232z"/>
<path class="st1" d="M241.7,317.2c-28.3,0-52.7-18.5-60.4-45.4c-11.6-0.6-20.8-10.2-20.8-21.9c0-10.9,7.9-19.9,18.3-21.7v-1.8
	c0-34.7,28.2-62.9,62.9-62.9s62.9,28.2,62.9,62.9v1.8C315,230,323,239.1,323,249.9c0,11.7-9.2,21.3-20.8,21.9
	C294.4,298.7,270,317.2,241.7,317.2z M184.4,263.8c1.8,0,3.5,1.3,3.9,3.1c5.8,24.9,27.8,42.4,53.4,42.4s47.6-17.4,53.4-42.4
	c0.5-2,2.3-3.3,4.3-3.1c0.5,0.1,1,0.1,1.5,0.1c7.7,0,14-6.3,14-14c0-7.7-6.2-13.9-13.9-14c-0.2,0-0.4,0-0.4,0
	c-1.1,0-2.1-0.4-2.8-1.2c-0.8-0.7-1.2-1.8-1.2-2.8v-5.6c0-30.3-24.6-54.9-54.9-54.9s-54.9,24.6-54.9,54.9v5.6c0,1.1-0.4,2.1-1.2,2.8
	c-0.8,0.8-1.8,1.2-2.9,1.1c-0.1,0-0.3,0-0.4,0c-7.6,0-13.9,6.3-13.9,14s6.3,14,14,14c0.5,0,1,0,1.5-0.1
	C184.1,263.8,184.3,263.8,184.4,263.8z"/>
<path class="st6" d="M217.5,217.9h-40.8c-1,0-1.8-0.8-1.8-1.8v-15c0-26.3,21.4-47.7,47.7-47.7h20c6.1,0,11.1,5,11.1,11.1v17.2
	C253.7,201.7,237.5,217.9,217.5,217.9z"/>
<path class="st6" d="M283.9,217.9h23.2c0.8,0,1.5-0.7,1.5-1.5V197c0-24.1-19.5-43.6-43.6-43.6h-0.3c-6.1,0-11,4.9-11,11v23.4
	C253.7,204.4,267.2,217.9,283.9,217.9z"/>
<path class="st1" d="M217.5,221.9h-40.8c-3.2,0-5.8-2.6-5.8-5.8v-15c0-28.5,23.2-51.7,51.7-51.7h20c8.3,0,15.1,6.8,15.1,15.1v17.2
	C257.7,203.9,239.7,221.9,217.5,221.9z M178.9,213.9h38.6c17.7,0,32.2-14.4,32.2-32.2v-17.2c0-3.9-3.2-7.1-7.1-7.1h-20
	c-24.1,0-43.7,19.6-43.7,43.7L178.9,213.9L178.9,213.9z"/>
<path class="st1" d="M307.1,221.9h-23.2c-18.9,0-34.2-15.3-34.2-34.2v-23.4c0-8.2,6.7-15,15-15h0.3c26.3,0,47.6,21.4,47.6,47.6v19.4
	C312.6,219.4,310.1,221.9,307.1,221.9z M264.6,157.4c-3.8,0-7,3.1-7,7v23.4c0,14.4,11.8,26.2,26.2,26.2h20.7V197
	c0-21.9-17.8-39.6-39.6-39.6L264.6,157.4L264.6,157.4z"/>
<path class="st1" d="M213.4,256.3c-3.3,0-6-2.7-6-6v-10c0-3.3,2.7-6,6-6s6,2.7,6,6v10C219.4,253.6,216.7,256.3,213.4,256.3z"/>
<path class="st1" d="M270.1,256.3c-3.3,0-6-2.7-6-6v-10c0-3.3,2.7-6,6-6s6,2.7,6,6v10C276.1,253.6,273.4,256.3,270.1,256.3z"/>
<path class="st5" d="M241.7,293.1c-4.9,0-8.9-4-8.9-8.9v-2.5c0-4.9,4-8.9,8.9-8.9c4.9,0,8.9,4,8.9,8.9v2.5
	C250.7,289.1,246.7,293.1,241.7,293.1z"/>
<path class="st2" d="M221.6,337.4h40.3l6.8-18h0c0.1-0.5,0.2-0.9,0.2-1.4v-11.3c-8.1,4.2-17.3,6.6-27.1,6.6c-9.8,0-19-2.4-27.1-6.6
	V318c0,0.5,0.1,0.9,0.2,1.4h0L221.6,337.4z"/>
<path class="st1" d="M308.6,373.1H176.9c-2.2,0-4-1.8-4-4v-8.3c0-0.7,0-1.4,0-2.1l0-0.7c0-0.5,0.1-1,0.1-1.4l0.1-0.6
	c0.1-0.6,0.1-1,0.2-1.4l0.1-0.7c0.1-0.5,0.1-0.9,0.2-1.3l0.4-2c0.1-0.3,0.1-0.6,0.2-0.9c0.1-0.4,0.2-0.7,0.3-1.1l0.9-2.8
	c0.1-0.3,0.2-0.6,0.3-0.8l0.1-0.2c0.2-0.5,0.4-1.1,0.6-1.6c0.2-0.4,0.3-0.7,0.4-1c0.1-0.2,0.2-0.5,0.4-0.8l0.5-1
	c0.2-0.3,0.3-0.6,0.5-0.9c0.2-0.3,0.3-0.6,0.4-0.8c0.2-0.3,0.4-0.6,0.6-1l0.4-0.7c0.2-0.3,0.4-0.6,0.6-1l0.4-0.7
	c0.2-0.3,0.4-0.6,0.7-1l0.4-0.6c0.2-0.3,0.5-0.6,0.7-1c0,0,0.1-0.1,0.1-0.1c7-8.9,17-14.9,28-16.8v-9.3c0-1.4,0.7-2.7,1.9-3.4
	c1.2-0.7,2.7-0.8,3.9-0.1c7.9,4.1,16.4,6.2,25.3,6.2c8.9,0,17.4-2.1,25.3-6.2c1.2-0.6,2.7-0.6,3.9,0.1c1.2,0.7,1.9,2,1.9,3.4v9
	c14.2,1.9,27,10.5,34.1,23.2c0.3,0.6,0.6,1.1,0.8,1.6l0.1,0.3c0.2,0.5,0.5,0.9,0.7,1.4c0,0,0.1,0.2,0.1,0.2c0.3,0.6,0.5,1.1,0.7,1.6
	l0.1,0.3c0.6,1.5,1.1,3,1.5,4.5l0.5,1.8c0,0,0,0.2,0,0.2l0.4,1.8c0.1,0.4,0.1,0.7,0.2,1.1c0,0.3,0.1,0.6,0.1,0.9
	c0.1,0.4,0.1,0.8,0.2,1.2l0.1,0.9c0,0.5,0.1,0.9,0.1,1.4l0,0.7c0,0.7,0.1,1.4,0.1,2.1v8.3C312.6,371.3,310.8,373.1,308.6,373.1z
	 M180.9,365.1h123.7v-4.3c0-0.6,0-1.2,0-1.8l0-0.6c0-0.4,0-0.8-0.1-1.1l-0.1-0.5c-0.1-0.5-0.1-0.8-0.1-1.2l-0.1-0.8
	c-0.1-0.3-0.1-0.6-0.2-0.9l-0.7-3c-0.4-1.4-0.8-2.6-1.2-3.8l3.6-1.7l-3.7,1.5c-0.2-0.4-0.3-0.8-0.5-1.2l-0.1-0.2
	c-0.2-0.5-0.4-0.9-0.6-1.3l-0.1-0.3c-0.2-0.4-0.4-0.8-0.6-1.2c-6.3-11.4-18.1-18.8-31-19.5c-0.7,0.1-1.4-0.1-2-0.4
	c-1.7-0.8-2.6-2.7-2.2-4.5c0.1-0.3,0.1-0.4,0.1-0.4v-5.1c-14.7,5.8-31.6,5.8-46.3,0v5.1c0,0.1,0,0.2,0.1,0.5c0.3,1.2,0,2.4-0.7,3.4
	c-0.7,0.9-1.8,1.5-2.9,1.5c-10.2,0.9-19.8,6.1-26.1,14.3c0,0-0.1,0.1-0.1,0.1c-0.2,0.3-0.4,0.5-0.6,0.8l-0.3,0.5
	c-0.2,0.3-0.4,0.5-0.6,0.8l-0.4,0.5c-0.2,0.3-0.3,0.5-0.5,0.8l-0.3,0.6c-0.2,0.3-0.3,0.5-0.5,0.8l-1.7,3.5c-0.3,0.6-0.4,1-0.6,1.5
	l-1,3c-0.1,0.5-0.2,0.8-0.3,1.1l-0.5,2.4c-0.1,0.3-0.1,0.6-0.2,1l-0.1,0.7c0,0.4-0.1,0.7-0.1,1l-0.1,0.7c0,0.4-0.1,0.8-0.1,1.2
	l0,0.6c0,0.6,0,1.1,0,1.7L180.9,365.1L180.9,365.1z"/>
<path class="st8" d="M486.2,486.3H314v-29.7c0-26.5,21.5-48.1,48.1-48.1h76c26.5,0,48.1,21.5,48.1,48.1L486.2,486.3L486.2,486.3z"/>
<path class="st9" d="M336.2,318.7c-3.5,0-6.3-2.8-6.3-6.3v-10.5c0-3.5,2.8-6.3,6.3-6.3s6.3,2.8,6.3,6.3v10.5
	C342.6,315.8,339.7,318.7,336.2,318.7z"/>
<path class="st2" d="M322.9,331.4h-6.4c-3.5,0-6.4-2.9-6.4-6.4c0-3.5,2.9-6.4,6.4-6.4h6.4V331.4z"/>
<path class="st5" d="M360.1,359.8c-1.1,0-2-0.9-2-1.9c-0.3-9.5-7.2-13.1-7.4-13.3c-1-0.5-1.4-1.7-0.9-2.7c0.5-1,1.7-1.4,2.7-0.9
	c0.4,0.2,9.3,4.7,9.7,16.7C362.2,358.8,361.3,359.7,360.1,359.8C360.2,359.8,360.1,359.8,360.1,359.8z"/>
<path class="st1" d="M486.2,490.3H314c-2.2,0-4-1.8-4-4v-29.7c0-28.7,23.4-52.1,52.1-52.1h76c28.7,0,52.1,23.4,52.1,52.1v29.7
	C490.1,488.5,488.4,490.3,486.2,490.3z M318,482.3h164.2v-25.7c0-24.3-19.8-44.1-44.1-44.1h-76c-24.3,0-44.1,19.8-44.1,44.1V482.3z"
	/>
<path class="st8" d="M370.6,486.3h-67.4v-37.6c0-17.2,13.9-31.1,31.1-31.1h5.3c17.2,0,31.1,13.9,31.1,31.1V486.3z"/>
<path class="st1" d="M370.6,490.3h-67.4c-2.2,0-4-1.8-4-4v-37.6c0-19.3,15.7-35.1,35.1-35.1h5.3c19.3,0,35.1,15.7,35.1,35.1v37.6
	C374.6,488.5,372.8,490.3,370.6,490.3z M307.1,482.3h59.4v-33.6c0-14.9-12.2-27.1-27.1-27.1h-5.3c-14.9,0-27.1,12.1-27.1,27.1V482.3
	z"/>
<path class="st10" d="M362,408.6h76c1.5,0,2.9,0.1,4.4,0.2v-0.6c0-5.7-4.7-10.4-10.4-10.4h-38.9c-1,0-2,0.1-3,0.3l-26.5,5.7
	c-2.7,0.6-4.7,2.5-5.6,4.9C359.3,408.6,360.7,408.6,362,408.6z"/>
<path class="st1" d="M442.5,412.8c-0.1,0-0.2,0-0.4,0c-1.4-0.1-2.7-0.2-4-0.2h-76c-1.1,0-2.3,0.1-3.7,0.2c-1.4,0.1-2.7-0.5-3.5-1.5
	c-0.8-1.1-1.1-2.5-0.6-3.8c1.3-3.8,4.6-6.7,8.5-7.5l26.5-5.7c1.3-0.3,2.6-0.4,3.9-0.4h38.9c7.9,0,14.4,6.5,14.4,14.4v0.6
	c0,1.1-0.5,2.2-1.3,2.9C444.4,412.4,443.5,412.8,442.5,412.8z M379.1,404.6h58.2c-1.2-1.7-3.1-2.8-5.3-2.8h-38.9
	c-0.7,0-1.5,0.1-2.2,0.2L379.1,404.6z"/>
<path class="st5" d="M331.8,362.2c-3.1,0-5.4-0.5-5.6-0.6c-2.2-0.5-3.5-2.6-3-4.8c0.5-2.1,2.6-3.5,4.8-3c0.2,0,10.2,2.1,14.4-4.3
	c1.2-1.9,3.7-2.4,5.5-1.2c1.9,1.2,2.4,3.7,1.2,5.5C344.5,360.9,337,362.2,331.8,362.2z"/>
<path class="st8" d="M207.4,112.8h16.2l17,38c0.8,1.7,3.2,1.7,4,0l17-38h16.2c9.7,0,17.6-7.9,17.6-17.6V24.8
	c0-9.7-7.9-17.6-17.6-17.6h-70.4c-9.7,0-17.6,7.9-17.6,17.6v70.4C189.8,104.9,197.6,112.8,207.4,112.8z"/>
<path class="st9" d="M242.5,156.1c-2.4,0-4.7-1.4-5.7-3.7L221,116.8h-13.6c-11.9,0-21.6-9.7-21.6-21.6V24.8
	c0-11.9,9.7-21.6,21.6-21.6h70.4c11.9,0,21.6,9.7,21.6,21.6v70.4c0,11.9-9.7,21.6-21.6,21.6h-13.6l-15.9,35.6
	C247.2,154.6,245,156.1,242.5,156.1z M244.2,149.1L244.2,149.1L244.2,149.1z M207.4,11.2c-7.5,0-13.6,6.1-13.6,13.6v70.4
	c0,7.5,6.1,13.6,13.6,13.6h16.2c1.6,0,3,0.9,3.7,2.4l15.3,34.3l15.3-34.3c0.6-1.4,2.1-2.4,3.7-2.4h16.2c7.5,0,13.6-6.1,13.6-13.6
	V24.8c0-7.5-6.1-13.6-13.6-13.6H207.4z"/>
<path class="st8" d="M51,112.8h16.2l17,38c0.8,1.7,3.2,1.7,4,0l17-38h16.2c9.7,0,17.6-7.9,17.6-17.6V24.8c0-9.7-7.9-17.6-17.6-17.6
	H51c-9.7,0-17.6,7.9-17.6,17.6v70.4C33.4,104.9,41.3,112.8,51,112.8z"/>
<path class="st9" d="M86.2,156.1c-2.4,0-4.7-1.4-5.7-3.7l-15.9-35.6H51c-11.9,0-21.6-9.7-21.6-21.6V24.8c0-11.9,9.7-21.6,21.6-21.6
	h70.4c11.9,0,21.6,9.7,21.6,21.6v70.4c0,11.9-9.7,21.6-21.6,21.6h-13.6l-15.9,35.6C90.9,154.6,88.7,156.1,86.2,156.1z M87.9,149.1
	L87.9,149.1L87.9,149.1z M51,11.2c-7.5,0-13.6,6.1-13.6,13.6v70.4c0,7.5,6.1,13.6,13.6,13.6h16.2c1.6,0,3,0.9,3.7,2.4l15.3,34.3
	l15.3-34.3c0.6-1.4,2.1-2.4,3.7-2.4h16.2c7.5,0,13.6-6.1,13.6-13.6V24.8c0-7.5-6.1-13.6-13.6-13.6H51z"/>
<path class="st5" d="M267.5,51.5h-52c-4.4,0-8-3.6-8-8s3.6-8,8-8h52c4.4,0,8,3.6,8,8S272,51.5,267.5,51.5z"/>
<path class="st5" d="M267.5,83.5h-52c-4.4,0-8-3.6-8-8c0-4.4,3.6-8,8-8h52c4.4,0,8,3.6,8,8C275.5,79.9,272,83.5,267.5,83.5z"/>
<path class="st5" d="M112.2,51.5h-52c-4.4,0-8-3.6-8-8s3.6-8,8-8h52c4.4,0,8,3.6,8,8S116.6,51.5,112.2,51.5z"/>
<path class="st5" d="M112.2,83.5h-52c-4.4,0-8-3.6-8-8c0-4.4,3.6-8,8-8h52c4.4,0,8,3.6,8,8C120.2,79.9,116.6,83.5,112.2,83.5z"/>
<path class="st4" d="M157.4,211.7h-12.6c0.5,3,0.7,6,0.7,9.2v5.6c0.1,0,0.2,0,0.4,0c4.5,0,8.6,1.7,11.7,4.4v-19.1
	C157.5,211.7,157.5,211.7,157.4,211.7z"/>
<path class="st1" d="M157.6,234.8c-0.9,0-1.9-0.3-2.6-1c-2.5-2.2-5.8-3.4-9.1-3.4c-0.1,0-0.2,0-0.4,0c-1,0-2.1-0.4-2.8-1.1
	c-0.8-0.8-1.2-1.8-1.2-2.9v-5.6c0-2.8-0.2-5.6-0.7-8.5c-0.2-1.2,0.2-2.3,0.9-3.2c0.8-0.9,1.9-1.4,3-1.4h12.4c0.1,0,0.2,0,0.2,0
	c1.1-0.1,2.2,0.3,3,1.1c0.8,0.8,1.3,1.8,1.3,2.9v19.1c0,1.6-0.9,3-2.3,3.6C158.8,234.7,158.2,234.8,157.6,234.8z M149.5,223
	c1.4,0.2,2.8,0.5,4.1,0.8v-6.1h-4.3c0.1,1.3,0.2,2.6,0.2,3.9V223z"/>
<path class="st4" d="M15.4,211.7v19.4c3.2-2.9,7.4-4.7,12-4.7c0.1,0,0.2,0,0.4,0v-5.6c0-3.1,0.3-6.2,0.7-9.2H15.4z"/>
<path class="st1" d="M15.4,235.1c-0.6,0-1.1-0.1-1.6-0.3c-1.4-0.6-2.4-2.1-2.4-3.7v-19.4c0-2.2,1.8-4,4-4h13.2c1.2,0,2.3,0.5,3,1.4
	c0.8,0.9,1.1,2.1,0.9,3.2c-0.5,3-0.7,5.8-0.7,8.5v5.6c0,1.1-0.4,2.1-1.2,2.9c-0.8,0.7-1.8,1.1-2.9,1.1c-0.1,0-0.3,0-0.4,0
	c-3.4,0-6.7,1.3-9.3,3.6C17.3,234.8,16.3,235.1,15.4,235.1z M19.4,215.7v8.2c1.4-0.6,2.9-1,4.4-1.2v-1.9c0-1.7,0.1-3.4,0.2-5.2H19.4
	z"/>
<path class="st1" d="M432.9,412.6h-64.1c-2.2,0-4-1.8-4-4v-15.6c-25.8-8.9-45.3-31.1-50.7-57.8c-4.5-1.1-7.9-5.2-7.9-10.1
	c0-4.3,2.6-8,6.4-9.6v-34.3c0-42.6,34.7-77.3,77.3-77.3c42.6,0,77.3,34.7,77.3,77.3v38.7c0,24-11.3,46.8-30.3,61.4v27.4
	C436.9,410.8,435.1,412.6,432.9,412.6z M372.7,404.6h56.2v-25.4c0-1.3,0.6-2.5,1.7-3.2c17.9-13,28.6-34,28.6-56.1v-38.7
	c0-38.2-31.1-69.3-69.3-69.3s-69.3,31.1-69.3,69.3v37.5c0,2.2-1.8,4-4,4c-1.3,0-2.4,1.1-2.4,2.4c0,1.3,1.1,2.4,2.4,2.4h0.9
	c2,0,3.6,1.4,3.9,3.4c4.2,26.1,23.2,47.8,48.5,55.4c1.7,0.5,2.8,2.1,2.8,3.8V404.6z M316.5,318.7L316.5,318.7L316.5,318.7z"/>
<path class="st11" d="M418.7,197.3c-2.8-4.8-7.9-8-13.8-8h-42.4c-36.7,0-66.5,29.8-66.5,66.5v23.3c0,3,2.4,5.3,5.3,5.3H373
	c12.7,0,24.3-5,32.8-13.1v86.5c0,3.1,2.5,5.6,5.6,5.6h31.9c19.7,0,35.8-16,35.8-35.8v-63.1C479.1,229.7,452.7,201,418.7,197.3z"/>
<path class="st1" d="M443.3,367.5h-31.9c-5.3,0-9.6-4.3-9.6-9.6v-78.2c-8.5,5.7-18.5,8.8-28.8,8.8h-71.7c-5.2,0-9.3-4.2-9.3-9.3
	v-23.3c0-38.9,31.6-70.5,70.5-70.5h42.4c6.4,0,12.4,3.1,16.1,8.3c35.5,4.8,62,35,62,71v63.1C483.1,349.6,465.2,367.5,443.3,367.5z
	 M405.8,267.4c0.5,0,1.1,0.1,1.6,0.3c1.5,0.6,2.4,2.1,2.4,3.7v86.5c0,0.9,0.7,1.6,1.6,1.6h31.9c17.5,0,31.8-14.2,31.8-31.8v-63.1
	c0-32.6-24.4-59.8-56.8-63.3c-1.3-0.1-2.4-0.9-3-2c-2.1-3.7-6.1-6-10.4-6h-42.4c-34.5,0-62.5,28-62.5,62.5v23.3
	c0,0.7,0.6,1.3,1.3,1.3H373c11.2,0,21.9-4.2,30.1-12C403.9,267.8,404.8,267.4,405.8,267.4z"/>
<path class="st2" d="M425.5,328.4c0,10.8-8.8,19.6-19.6,19.6c-10.8,0-19.6-8.8-19.6-19.6c0-10.8,8.8-19.6,19.6-19.6
	C416.7,308.7,425.5,317.5,425.5,328.4z"/>
<path class="st3" d="M407.3,303.5H312V293h-4.7v27.5h4.7v-11.7h95.3V303.5z"/>
</svg>
